<?xml version="1.0"?>
<svg
  width="100%" height="100%" viewBox="15 45 216.2 120"
  xmlns="http://www.w3.org/2000/svg" xmlns:svg="http://www.w3.org/2000/svg">

 <style type="text/css">
  .st0{fill-rule:evenodd;clip-rule:evenodd;fill:#000000;stroke:#000000;}
	.st1{fill-rule:evenodd;clip-rule:evenodd;fill:url(#SVGID_1_);}
	.st2{fill:#F7F7F8;stroke:#F2F731;stroke-width:3;stroke-linecap:round;stroke-linejoin:round;stroke-miterlimit:10;}
	.st3{fill:#F7F7F8;}
	.st4{fill:#F7F7F8;stroke:#2A2A2A;stroke-width:6;stroke-miterlimit:10;}
	.st5{fill:#F7F7F8;stroke:#1D1D1B;stroke-width:5;stroke-linecap:round;stroke-miterlimit:10;}</style>
 <linearGradient y2="53.988" x2="122.0154" y1="156.9132" x1="122.0154" gradientUnits="userSpaceOnUse" id="SVGID_1_">
  <stop stop-color="#007BAA" offset="0"/>
  <stop stop-color="#017DA9" offset="0.6154"/>
  <stop stop-color="#0784A4" offset="0.8368"/>
  <stop stop-color="#108F9B" offset="0.9943"/>
  <stop stop-color="#10909B" offset="1"/>
 </linearGradient>
 <g>
  <title>Layer 1</title>
  <path id="svg_1" d="m34.4,47c-4.9,0 -9.3,2 -12.5,5.2c-3.2,3.2 -5.2,7.6 -5.2,12.5l0,81.5c0,4.9 2,9.3 5.2,12.5c3.2,3.2 7.6,5.2 12.5,5.2l49.6,0c3.7,0 5.6,0.1 7.8,-1.3c2.3,-1.4 3.7,-3.8 6.6,-8.9l16.3,-28.2c0.8,-1.5 1.9,-2.8 3.1,-3.8c0.9,-0.7 2,-1.3 3.2,-1.4l0.9,-0.1l0.9,0.1c1.2,0.2 2.3,0.7 3.2,1.5c1.2,0.9 2.2,2.2 3,3.6l0.1,0.2l16.4,28.4c2.9,5.1 4.3,7.4 6.6,8.8c2.2,1.3 4.1,1.3 7.6,1.2c0.4,0 0.8,0 2.6,0l47.2,0c4.9,0 9.3,-2 12.5,-5.2c3.2,-3.2 5.2,-7.6 5.2,-12.5l0,-81.6c0,-4.9 -2,-9.3 -5.2,-12.5c-3,-3.2 -7.5,-5.2 -12.3,-5.2l-175.3,0l0,0z" class="st0"/>
  <path id="svg_2" d="m209.7,54l-175.3,0c-2.9,0 -5.6,1.2 -7.6,3.1c-1.9,1.9 -3.1,4.6 -3.1,7.6l0,81.5c0,2.9 1.2,5.6 3.1,7.6c1.9,1.9 4.6,3.1 7.6,3.1l47.6,0c0.5,0 0.9,0 2.1,0c2.3,0 3.6,0 4.1,-0.3c0.8,-0.5 1.9,-2.4 4.3,-6.5l16.3,-28.2c1.2,-2.1 2.9,-4.2 4.9,-5.8c1.9,-1.5 4,-2.5 6.5,-2.9l1.4,-0.2l0,0c0.3,0 0.7,0 1,0l1.4,0.2c2.5,0.4 4.6,1.4 6.5,2.9c1.9,1.5 3.5,3.5 4.7,5.6l0.1,0.2l16.4,28.4c2.3,4.1 3.4,5.9 4.2,6.4c0.4,0.3 1.7,0.3 3.9,0.2c1.2,0 2.5,0 2.7,0l47.2,0c2.9,0 5.6,-1.2 7.6,-3.1c1.9,-1.9 3.1,-4.6 3.1,-7.6l0,-81.5c0,-2.9 -1.2,-5.6 -3.1,-7.6c-2,-1.9 -4.7,-3.1 -7.6,-3.1z" class="st1"/>
  <g id="svg_3">
   <line id="svg_4" y2="71.6" x2="175.1" y1="79" x1="175.1" class="st2"/>
   <line id="svg_5" y2="138.5" x2="175.1" y1="131.1" x1="175.1" class="st2"/>
   <g id="svg_6">
    <line id="svg_7" y2="105" x2="141.6" y1="105" x1="149" class="st2"/>
    <line id="svg_8" y2="105" x2="208.6" y1="105" x1="201.2" class="st2"/>
   </g>
   <g id="svg_9">
    <line id="svg_10" y2="81.4" x2="151.4" y1="86.6" x1="156.7" class="st2"/>
    <line id="svg_11" y2="128.7" x2="198.8" y1="123.5" x1="193.5" class="st2"/>
   </g>
   <g id="svg_12">
    <line id="svg_13" y2="128.7" x2="151.4" y1="123.5" x1="156.7" class="st2"/>
    <line id="svg_14" y2="81.4" x2="198.8" y1="86.6" x1="193.6" class="st2"/>
   </g>
  </g>
  <circle id="svg_30" r="18" cy="105" cx="175.1" class="st4"/>
  <g id="svg_31">
   <path id="svg_32" d="m40,122.6c-9.9,-5.7 -5.2,-19.1 5.4,-17.9c0.2,-4.7 5.3,-10.7 13.3,-8.1c5.7,-12.8 23.5,-12.1 27.2,1.4c17.4,-3.2 20.7,21.5 6.2,24.7l-52.1,-0.1z" class="st5"/>
  </g>
 </g>
</svg>
