<?xml version="1.0"?>
<svg
  width="100%" height="100%" viewBox="0 0 246.2 170"
  xmlns="http://www.w3.org/2000/svg" xmlns:svg="http://www.w3.org/2000/svg">

 <style type="text/css">.st0{fill-rule:evenodd;clip-rule:evenodd;fill:#2A2A2A;}
	.st1{fill-rule:evenodd;clip-rule:evenodd;fill:url(#SVGID_1_);}
	.st2{fill:#F7F7F8;stroke:#F2F731;stroke-width:3;stroke-linecap:round;stroke-linejoin:round;stroke-miterlimit:10;}
	.st3{fill:#F7F7F8;}
	.st4{fill:#F7F7F8;stroke:#2A2A2A;stroke-width:6;stroke-miterlimit:10;}
	.st5{fill:#F7F7F8;stroke:#1D1D1B;stroke-width:5;stroke-linecap:round;stroke-miterlimit:10;}</style>
 <linearGradient y2="53.988" x2="122.0154" y1="156.9132" x1="122.0154" gradientUnits="userSpaceOnUse" id="SVGID_1_">
  <stop stop-color="#007BAA" offset="0"/>
  <stop stop-color="#017DA9" offset="0.6154"/>
  <stop stop-color="#0784A4" offset="0.8368"/>
  <stop stop-color="#108F9B" offset="0.9943"/>
  <stop stop-color="#10909B" offset="1"/>
 </linearGradient>
 <g>
  <title>Layer 1</title>
  <path id="svg_1" d="m34.4,47c-4.9,0 -9.3,2 -12.5,5.2c-3.2,3.2 -5.2,7.6 -5.2,12.5l0,81.5c0,4.9 2,9.3 5.2,12.5c3.2,3.2 7.6,5.2 12.5,5.2l49.6,0c3.7,0 5.6,0.1 7.8,-1.3c2.3,-1.4 3.7,-3.8 6.6,-8.9l16.3,-28.2c0.8,-1.5 1.9,-2.8 3.1,-3.8c0.9,-0.7 2,-1.3 3.2,-1.4l0.9,-0.1l0.9,0.1c1.2,0.2 2.3,0.7 3.2,1.5c1.2,0.9 2.2,2.2 3,3.6l0.1,0.2l16.4,28.4c2.9,5.1 4.3,7.4 6.6,8.8c2.2,1.3 4.1,1.3 7.6,1.2c0.4,0 0.8,0 2.6,0l47.2,0c4.9,0 9.3,-2 12.5,-5.2c3.2,-3.2 5.2,-7.6 5.2,-12.5l0,-81.6c0,-4.9 -2,-9.3 -5.2,-12.5c-3,-3.2 -7.5,-5.2 -12.3,-5.2l-175.3,0l0,0z" class="st0"/>
  <path id="svg_2" d="m209.7,54l-175.3,0c-2.9,0 -5.6,1.2 -7.6,3.1c-1.9,1.9 -3.1,4.6 -3.1,7.6l0,81.5c0,2.9 1.2,5.6 3.1,7.6c1.9,1.9 4.6,3.1 7.6,3.1l47.6,0c0.5,0 0.9,0 2.1,0c2.3,0 3.6,0 4.1,-0.3c0.8,-0.5 1.9,-2.4 4.3,-6.5l16.3,-28.2c1.2,-2.1 2.9,-4.2 4.9,-5.8c1.9,-1.5 4,-2.5 6.5,-2.9l1.4,-0.2l0,0c0.3,0 0.7,0 1,0l1.4,0.2c2.5,0.4 4.6,1.4 6.5,2.9c1.9,1.5 3.5,3.5 4.7,5.6l0.1,0.2l16.4,28.4c2.3,4.1 3.4,5.9 4.2,6.4c0.4,0.3 1.7,0.3 3.9,0.2c1.2,0 2.5,0 2.7,0l47.2,0c2.9,0 5.6,-1.2 7.6,-3.1c1.9,-1.9 3.1,-4.6 3.1,-7.6l0,-81.5c0,-2.9 -1.2,-5.6 -3.1,-7.6c-2,-1.9 -4.7,-3.1 -7.6,-3.1z" class="st1"/>
  <g id="svg_3">
   <line id="svg_4" y2="71.6" x2="175.1" y1="79" x1="175.1" class="st2"/>
   <line id="svg_5" y2="138.5" x2="175.1" y1="131.1" x1="175.1" class="st2"/>
   <g id="svg_6">
    <line id="svg_7" y2="105" x2="141.6" y1="105" x1="149" class="st2"/>
    <line id="svg_8" y2="105" x2="208.6" y1="105" x1="201.2" class="st2"/>
   </g>
   <g id="svg_9">
    <line id="svg_10" y2="81.4" x2="151.4" y1="86.6" x1="156.7" class="st2"/>
    <line id="svg_11" y2="128.7" x2="198.8" y1="123.5" x1="193.5" class="st2"/>
   </g>
   <g id="svg_12">
    <line id="svg_13" y2="128.7" x2="151.4" y1="123.5" x1="156.7" class="st2"/>
    <line id="svg_14" y2="81.4" x2="198.8" y1="86.6" x1="193.6" class="st2"/>
   </g>
  </g>
  <circle id="svg_30" r="18" cy="105" cx="175.1" class="st4"/>
  <g id="svg_31">
   <path id="svg_32" d="m40,122.6c-9.9,-5.7 -5.2,-19.1 5.4,-17.9c0.2,-4.7 5.3,-10.7 13.3,-8.1c5.7,-12.8 23.5,-12.1 27.2,1.4c17.4,-3.2 20.7,21.5 6.2,24.7l-52.1,-0.1z" class="st5"/>
  </g>
 </g>


 <!-- Met office logo -->
 <g>
 	<path class="st3" d="M181.2,20.9c0.4,0,0.8,0.1,1.1,0.4c0.4,0.4,0.6,1.1,0.6,2v0.3l-3.8,0c0-1,0.3-1.8,0.7-2.2
 		C180.1,21,180.5,20.9,181.2,20.9 M184.2,20c-0.8-0.8-1.8-1.2-3-1.2c-3.2,0-5.6,2.4-5.6,6c0,3.8,2.4,6.5,5.7,6.5
 		c2.4,0,4.3-1.5,4.3-1.5l-0.9-1.9c0,0-1.2,1.1-2.9,1.1c-0.8,0-1.5-0.4-2-0.8c-0.5-0.7-0.8-1.5-0.8-2.6l6.7,0
 		C185.7,25.6,186.1,22,184.2,20 M113.7,20.9c0.4,0,0.8,0.1,1.1,0.4c0.4,0.4,0.5,1.1,0.5,2v0.3l-3.8,0c0-1,0.3-1.8,0.7-2.2
 		C112.6,21,113,20.9,113.7,20.9 M116.7,20c-0.8-0.8-1.8-1.2-3-1.2c-3.2,0-5.6,2.4-5.6,6c0,3.8,2.5,6.5,5.7,6.5
 		c2.4,0,4.3-1.5,4.3-1.5l-0.9-1.9c0,0-1.2,1.1-2.9,1.1c-0.8,0-1.5-0.4-2-0.8c-0.5-0.7-0.8-1.5-0.8-2.6l6.6,0
 		C118.1,25.6,118.6,22,116.7,20 M138.2,16.8c3,0,3.9,3.1,3.9,5.7c0,1.5-0.3,6.1-3.9,6.1c-3.8,0-4.1-4.6-4.1-6.1
 		C134.2,19.9,135.2,16.8,138.2,16.8 M138.2,14.2c-4.2,0-7.5,3.5-7.5,8.3c0,5.2,3.1,8.8,7.5,8.8c4.3,0,7.4-3.7,7.4-8.8
 		C145.7,17.8,142.4,14.2,138.2,14.2 M172.7,28.7c-1.9,0-3.1-1.6-3.1-3.9c0-2.6,1.6-3.7,3.1-3.7c1.1,0,2,0.5,2,0.5L174,19
 		c0,0-0.8-0.3-1.6-0.3c-3.9,0-6.1,3.1-6.1,6.2c0,2.2,1.3,6.2,6,6.2c1.8,0,3.1-1.1,3.1-1.1l-0.7-2C174.7,28.1,173.9,28.7,172.7,28.7
 		 M124.8,29.1c-0.8,0-1.2-1-1.2-2.6l0-5.4l2.7,0l-0.5-2l-2.2,0l0-2.7l-3.1,0l0,2.7l-1.8,0l0.4,2l1.3,0l0,6.2c0,2.6,1.1,3.9,3.4,3.9
 		c1.8,0,3-0.8,3-0.8l-0.5-1.9C126.3,28.6,125.6,29.1,124.8,29.1 M97.9,25.6c0-0.3-3.3-11.5-3.3-11.5l-4.1,0L89,31l3.1,0l1-11.8h0.1
 		L96.4,31l3,0l3.3-11.8h0.1l0.9,11.8l3.1,0l-1.5-16.9l-4.2,0C101.2,14.1,98.1,25.3,97.9,25.6 M155.3,19.1l-4.1,0v-1
 		c0-1.4,1-1.6,1.2-1.6c0.8-0.1,1.3,0.3,1.3,0.3l-0.5-2.3c0,0-0.5-0.1-1.4-0.1c-1.8,0-3.7,1.4-3.7,4.2v0.5h-1.8l0.4,2h1.4l0,9.8l3,0
 		l0-9.8l3.9,0l0,9.8l3.1,0l0-9.8l3.2,0l0,9.8l3.1,0l0-11.8l-6.4,0v-1c0-1.4,0.9-1.6,1.2-1.6c0.8-0.1,1.4,0.3,1.4,0.3l-0.5-2.3
 		c0,0-0.6-0.1-1.4-0.1c-1.8,0-3.7,1.4-3.7,4.2V19.1z"/>
 	<g>
 		<path class="st3" d="M63.3,19.9c-1.8,0.4-3.5-0.1-5.2-0.7l0-1.1c0.9,0.2,1.8,0.2,2.8,0c3.6-0.8,6.5-5.8,11.9-3.4
 			c5.1,2.2,10.9,0.2,11.6-0.1l0,2.5c-2.3,0.5-5.9,0.8-9.2-0.6C69.9,14.1,66.9,19.1,63.3,19.9 M67.9,23.1c3.6-0.8,6.5-5.8,11.9-3.4
 			c1.5,0.7,3.1,0.9,4.6,1v-1.9c-2.1,0.2-4.6,0.1-7-1c-5.4-2.4-8.3,2.6-11.9,3.4c-2.5,0.6-4.8-0.8-7.4-1.5l0,1.4
 			C61.8,21.4,64.7,23.8,67.9,23.1 M71.8,26.3c3.6-0.8,6.5-5.8,11.9-3.4c0.2,0.1,0.5,0.2,0.7,0.3V22c-1.1-0.2-2.1-0.4-3.2-0.9
 			c-5.4-2.4-8.3,2.6-11.9,3.4c-3.5,0.8-6.8-2.2-11-1.8h-0.2l0,2.6c0.8-0.4,1.7-0.7,2.6-0.8C65,24,68.2,27.1,71.8,26.3 M73.1,27.4
 			c-3.5,0.8-6.8-2.3-11.1-1.8c-1.4,0.1-2.7,0.8-3.9,1.6l0,3.8c1-1.2,3.2-3.1,6.4-3.4c4.3-0.4,7.5,2.6,11.1,1.8
 			c2.8-0.6,5.3-3.9,8.8-4.1l0-1.6C79.4,22,76.6,26.7,73.1,27.4"/>
 	</g>
 </g>


</svg>
